<svg xmlns="http://www.w3.org/2000/svg" viewBox="0 0 24 24" id="veolia-environtment">
  <path fill="#F44336" d="M11.999 0C5.373 0 0 5.373 0 12s5.373 12 11.999 12C18.628 24 24 18.627 24 12S18.628 0 11.999 0zm.061 18.864c1.476-1.646 2.954-3.898 2.571-5.74-.316-1.87-1.708-2.486-2.631-2.469-.926-.017-2.317.599-2.632 2.469-.387 1.842 1.094 4.093 2.57 5.739a8.529 8.529 0 0 1 .095-17.056c4.711 0 8.531 3.819 8.531 8.528.003 4.703-3.804 8.516-8.504 8.529z"></path>
  <path fill="#DEDEDE" d="M12 1.807a8.528 8.528 0 0 0-.06 17.056c-1.477-1.646-2.957-3.898-2.57-5.739.311-1.845 1.669-2.469 2.594-2.469H12V1.807z"></path>
  <path fill="#D43A2F" d="M11.999 0C5.373 0 0 5.373 0 12s5.373 12 11.999 12H12V10.655h-.036c-.926 0-2.283.624-2.594 2.469-.387 1.842 1.094 4.093 2.57 5.739A8.529 8.529 0 0 1 12 1.807L11.999 0z"></path>
</svg>
